<svg xmlns="http://www.w3.org/2000/svg" xmlns:xlink="http://www.w3.org/1999/xlink" viewBox="0 0 593.34 221.2"><defs><linearGradient id="linear-gradient" x1="409.1" y1="89.77" x2="436" y2="89.77" gradientTransform="matrix(-1, -0.01, -0.01, 1, 594.49, 1.51)" gradientUnits="userSpaceOnUse"><stop offset="0" stop-color="#53baed"/><stop offset="0.51" stop-color="#439bd5"/><stop offset="0.91" stop-color="#2b6cb0"/></linearGradient><linearGradient id="linear-gradient-2" x1="361.4" y1="23.65" x2="395.3" y2="23.65" gradientTransform="matrix(-1, 0, 0, 1, 594, 0)" xlink:href="#linear-gradient"/><linearGradient id="linear-gradient-3" x1="349.4" y1="9.8" x2="371" y2="9.8" gradientTransform="matrix(-1, 0, 0, 1, 594, 0)" xlink:href="#linear-gradient"/><linearGradient id="linear-gradient-4" x1="333.4" y1="9.5" x2="350.4" y2="9.5" gradientTransform="matrix(-1, 0, 0, 1, 594, 0)" xlink:href="#linear-gradient"/><linearGradient id="linear-gradient-5" x1="328" y1="32.65" x2="349.4" y2="32.65" gradientTransform="matrix(-1, 0, 0, 1, 594, 0)" xlink:href="#linear-gradient"/><linearGradient id="linear-gradient-6" x1="418.6" y1="73.7" x2="447.1" y2="73.7" gradientTransform="matrix(-1, 0, 0, 1, 594, 0)" xlink:href="#linear-gradient"/><linearGradient id="linear-gradient-7" x1="413.6" y1="71.85" x2="432.8" y2="71.85" gradientTransform="matrix(-1, 0, 0, 1, 594, 0)" xlink:href="#linear-gradient"/><linearGradient id="linear-gradient-8" x1="380.4" y1="52.6" x2="409.5" y2="52.6" gradientTransform="matrix(-1, 0, 0, 1, 594, 0)" xlink:href="#linear-gradient"/><linearGradient id="linear-gradient-9" x1="356" y1="85.2" x2="370.4" y2="85.2" gradientTransform="matrix(-1, 0, 0, 1, 594, 0)" xlink:href="#linear-gradient"/><linearGradient id="linear-gradient-10" x1="335.5" y1="76.3" x2="365.8" y2="76.3" gradientTransform="matrix(-1, 0, 0, 1, 594, 0)" xlink:href="#linear-gradient"/><linearGradient id="linear-gradient-11" x1="300.1" y1="63.9" x2="328" y2="63.9" gradientTransform="matrix(-1, 0, 0, 1, 594, 0)" xlink:href="#linear-gradient"/><linearGradient id="linear-gradient-12" x1="297.3" y1="39.3" x2="326.6" y2="39.3" gradientTransform="matrix(-1, 0, 0, 1, 594, 0)" xlink:href="#linear-gradient"/><linearGradient id="linear-gradient-13" x1="297.6" y1="83.55" x2="328.8" y2="83.55" gradientTransform="matrix(-1, 0, 0, 1, 594, 0)" xlink:href="#linear-gradient"/><linearGradient id="linear-gradient-14" x1="329.2" y1="92.25" x2="366.6" y2="92.25" gradientTransform="matrix(-1, 0, 0, 1, 594, 0)" xlink:href="#linear-gradient"/><linearGradient id="linear-gradient-15" x1="331.1" y1="114.25" x2="338.5" y2="114.25" gradientTransform="matrix(-1, 0, 0, 1, 594, 0)" xlink:href="#linear-gradient"/><linearGradient id="linear-gradient-16" x1="340.6" y1="130.25" x2="372.1" y2="130.25" gradientTransform="matrix(-1, 0, 0, 1, 594, 0)" xlink:href="#linear-gradient"/><linearGradient id="linear-gradient-17" x1="372.3" y1="81.5" x2="399" y2="81.5" gradientTransform="matrix(-1, 0, 0, 1, 594, 0)" xlink:href="#linear-gradient"/><linearGradient id="linear-gradient-18" x1="379.6" y1="75.5" x2="411.8" y2="75.5" gradientTransform="matrix(-1, 0, 0, 1, 594, 0)" xlink:href="#linear-gradient"/><linearGradient id="linear-gradient-19" x1="379.8" y1="96.2" x2="407.5" y2="96.2" gradientTransform="matrix(-1, 0, 0, 1, 594, 0)" xlink:href="#linear-gradient"/><linearGradient id="linear-gradient-20" x1="384" y1="115.45" x2="433.9" y2="115.45" gradientTransform="matrix(-1, 0, 0, 1, 594, 0)" xlink:href="#linear-gradient"/><linearGradient id="linear-gradient-21" x1="420.49" y1="132.2" x2="455.29" y2="132.2" gradientTransform="matrix(-1, -0.01, -0.01, 1, 595.69, 3.07)" xlink:href="#linear-gradient"/><linearGradient id="linear-gradient-22" x1="421.89" y1="143.65" x2="451.79" y2="143.65" gradientTransform="matrix(-1, -0.01, -0.01, 1, 595.69, 3.07)" xlink:href="#linear-gradient"/><linearGradient id="linear-gradient-23" x1="407.69" y1="194.2" x2="415.89" y2="194.2" gradientTransform="matrix(-1, -0.01, -0.01, 1, 595.69, 3.07)" xlink:href="#linear-gradient"/><linearGradient id="linear-gradient-24" x1="413.59" y1="203.9" x2="417.19" y2="203.9" gradientTransform="matrix(-1, -0.01, -0.01, 1, 595.69, 3.07)" xlink:href="#linear-gradient"/><linearGradient id="linear-gradient-25" x1="407.19" y1="186.8" x2="419.29" y2="186.8" gradientTransform="matrix(-1, -0.01, -0.01, 1, 595.69, 3.07)" xlink:href="#linear-gradient"/><linearGradient id="linear-gradient-26" x1="420.29" y1="203.4" x2="423.59" y2="203.4" gradientTransform="matrix(-1, -0.01, -0.01, 1, 595.69, 3.07)" xlink:href="#linear-gradient"/><linearGradient id="linear-gradient-27" x1="421.39" y1="194.4" x2="422.49" y2="194.4" gradientTransform="matrix(-1, -0.01, -0.01, 1, 595.69, 3.07)" xlink:href="#linear-gradient"/><linearGradient id="linear-gradient-28" x1="407.99" y1="170.25" x2="424.89" y2="170.25" gradientTransform="matrix(-1, -0.01, -0.01, 1, 595.69, 3.07)" xlink:href="#linear-gradient"/><linearGradient id="linear-gradient-29" x1="423.29" y1="180.35" x2="426.49" y2="180.35" gradientTransform="matrix(-1, -0.01, -0.01, 1, 595.69, 3.07)" xlink:href="#linear-gradient"/><linearGradient id="linear-gradient-30" x1="424.59" y1="167.5" x2="434.99" y2="167.5" gradientTransform="matrix(-1, -0.01, -0.01, 1, 595.69, 3.07)" xlink:href="#linear-gradient"/><linearGradient id="linear-gradient-31" x1="432.39" y1="164.9" x2="455.29" y2="164.9" gradientTransform="matrix(-1, -0.01, -0.01, 1, 595.69, 3.07)" xlink:href="#linear-gradient"/><linearGradient id="linear-gradient-32" x1="442.19" y1="161.75" x2="458.79" y2="161.75" gradientTransform="matrix(-1, -0.01, -0.01, 1, 595.69, 3.07)" xlink:href="#linear-gradient"/><linearGradient id="linear-gradient-33" x1="534.5" y1="159.75" x2="565.7" y2="159.75" gradientTransform="matrix(-1, 0, 0, 1, 594, 0)" xlink:href="#linear-gradient"/><linearGradient id="linear-gradient-34" x1="532.9" y1="128.7" x2="547.6" y2="128.7" gradientTransform="matrix(-1, 0, 0, 1, 594, 0)" xlink:href="#linear-gradient"/><linearGradient id="linear-gradient-35" x1="510.9" y1="138.45" x2="528.5" y2="138.45" gradientTransform="matrix(-1, 0, 0, 1, 594, 0)" xlink:href="#linear-gradient"/><linearGradient id="linear-gradient-36" x1="499.9" y1="116.85" x2="525.1" y2="116.85" gradientTransform="matrix(-1, 0, 0, 1, 594, 0)" xlink:href="#linear-gradient"/><linearGradient id="linear-gradient-37" x1="488.7" y1="116.3" x2="503" y2="116.3" gradientTransform="matrix(-1, 0, 0, 1, 594, 0)" xlink:href="#linear-gradient"/><linearGradient id="linear-gradient-38" x1="477.9" y1="95.85" x2="501.5" y2="95.85" gradientTransform="matrix(-1, 0, 0, 1, 594, 0)" xlink:href="#linear-gradient"/><linearGradient id="linear-gradient-39" x1="469.4" y1="108.4" x2="493.7" y2="108.4" gradientTransform="matrix(-1, 0, 0, 1, 594, 0)" xlink:href="#linear-gradient"/><linearGradient id="linear-gradient-40" x1="443.6" y1="100.9" x2="471.5" y2="100.9" gradientTransform="matrix(-1, 0, 0, 1, 594, 0)" xlink:href="#linear-gradient"/><linearGradient id="linear-gradient-41" x1="442.7" y1="84.7" x2="470.6" y2="84.7" gradientTransform="matrix(-1, 0, 0, 1, 594, 0)" xlink:href="#linear-gradient"/><linearGradient id="linear-gradient-42" x1="443.3" y1="130.75" x2="465.3" y2="130.75" gradientTransform="matrix(-1, 0, 0, 1, 594, 0)" xlink:href="#linear-gradient"/><linearGradient id="linear-gradient-43" x1="462.1" y1="137.9" x2="493.2" y2="137.9" gradientTransform="matrix(-1, 0, 0, 1, 594, 0)" xlink:href="#linear-gradient"/><linearGradient id="linear-gradient-44" x1="466.3" y1="146.5" x2="504.8" y2="146.5" gradientTransform="matrix(-1, 0, 0, 1, 594, 0)" xlink:href="#linear-gradient"/><linearGradient id="linear-gradient-45" x1="499.5" y1="137" x2="524.5" y2="137" gradientTransform="matrix(-1, 0, 0, 1, 594, 0)" xlink:href="#linear-gradient"/><linearGradient id="linear-gradient-46" x1="510.5" y1="169.35" x2="530" y2="169.35" gradientTransform="matrix(-1, 0, 0, 1, 594, 0)" xlink:href="#linear-gradient"/><linearGradient id="linear-gradient-47" x1="530.2" y1="124.15" x2="545.3" y2="124.15" gradientTransform="matrix(-1, 0, 0, 1, 594, 0)" xlink:href="#linear-gradient"/><linearGradient id="linear-gradient-48" x1="531.9" y1="169.75" x2="546" y2="169.75" gradientTransform="matrix(-1, 0, 0, 1, 594, 0)" xlink:href="#linear-gradient"/><linearGradient id="linear-gradient-49" x1="535.7" y1="176.35" x2="567.9" y2="176.35" gradientTransform="matrix(-1, 0, 0, 1, 594, 0)" xlink:href="#linear-gradient"/><linearGradient id="linear-gradient-50" x1="541.7" y1="187.35" x2="573.1" y2="187.35" gradientTransform="matrix(-1, 0, 0, 1, 594, 0)" xlink:href="#linear-gradient"/><linearGradient id="linear-gradient-51" x1="574" y1="185.8" x2="578.3" y2="185.8" gradientTransform="matrix(-1, 0, 0, 1, 594, 0)" xlink:href="#linear-gradient"/><linearGradient id="linear-gradient-52" x1="577.6" y1="190.3" x2="584.4" y2="190.3" gradientTransform="matrix(-1, 0, 0, 1, 594, 0)" xlink:href="#linear-gradient"/><linearGradient id="linear-gradient-53" x1="578.7" y1="206.3" x2="592.9" y2="206.3" gradientTransform="matrix(-1, 0, 0, 1, 594, 0)" xlink:href="#linear-gradient"/><linearGradient id="linear-gradient-54" x1="582.2" y1="213.55" x2="588.8" y2="213.55" gradientTransform="matrix(-1, 0, 0, 1, 594, 0)" xlink:href="#linear-gradient"/><linearGradient id="linear-gradient-55" x1="590.1" y1="219.55" x2="594" y2="219.55" gradientTransform="matrix(-1, 0, 0, 1, 594, 0)" xlink:href="#linear-gradient"/><linearGradient id="linear-gradient-56" x1="705.73" y1="91.4" x2="732.63" y2="91.4" gradientTransform="translate(-297.79 1.51) rotate(-0.32)" xlink:href="#linear-gradient"/><linearGradient id="linear-gradient-57" x1="658.04" y1="23.65" x2="691.94" y2="23.65" gradientTransform="translate(-297.3)" xlink:href="#linear-gradient"/><linearGradient id="linear-gradient-58" x1="646.04" y1="9.8" x2="667.64" y2="9.8" gradientTransform="translate(-297.3)" xlink:href="#linear-gradient"/><linearGradient id="linear-gradient-59" x1="630.04" y1="9.5" x2="647.04" y2="9.5" gradientTransform="translate(-297.3)" xlink:href="#linear-gradient"/><linearGradient id="linear-gradient-60" x1="624.64" y1="32.65" x2="646.04" y2="32.65" gradientTransform="translate(-297.3)" xlink:href="#linear-gradient"/><linearGradient id="linear-gradient-61" x1="715.24" y1="73.7" x2="743.74" y2="73.7" gradientTransform="translate(-297.3)" xlink:href="#linear-gradient"/><linearGradient id="linear-gradient-62" x1="710.24" y1="71.85" x2="729.44" y2="71.85" gradientTransform="translate(-297.3)" xlink:href="#linear-gradient"/><linearGradient id="linear-gradient-63" x1="677.04" y1="52.6" x2="706.14" y2="52.6" gradientTransform="translate(-297.3)" xlink:href="#linear-gradient"/><linearGradient id="linear-gradient-64" x1="652.64" y1="85.2" x2="667.04" y2="85.2" gradientTransform="translate(-297.3)" xlink:href="#linear-gradient"/><linearGradient id="linear-gradient-65" x1="632.14" y1="76.3" x2="662.44" y2="76.3" gradientTransform="translate(-297.3)" xlink:href="#linear-gradient"/><linearGradient id="linear-gradient-66" x1="596.74" y1="63.9" x2="624.64" y2="63.9" gradientTransform="translate(-297.3)" xlink:href="#linear-gradient"/><linearGradient id="linear-gradient-67" x1="593.94" y1="39.3" x2="623.24" y2="39.3" gradientTransform="translate(-297.3)" xlink:href="#linear-gradient"/><linearGradient id="linear-gradient-68" x1="594.24" y1="83.55" x2="625.44" y2="83.55" gradientTransform="translate(-297.3)" xlink:href="#linear-gradient"/><linearGradient id="linear-gradient-69" x1="625.84" y1="92.25" x2="663.24" y2="92.25" gradientTransform="translate(-297.3)" xlink:href="#linear-gradient"/><linearGradient id="linear-gradient-70" x1="627.74" y1="114.25" x2="635.14" y2="114.25" gradientTransform="translate(-297.3)" xlink:href="#linear-gradient"/><linearGradient id="linear-gradient-71" x1="637.24" y1="130.25" x2="668.74" y2="130.25" gradientTransform="translate(-297.3)" xlink:href="#linear-gradient"/><linearGradient id="linear-gradient-72" x1="668.94" y1="81.5" x2="695.64" y2="81.5" gradientTransform="translate(-297.3)" xlink:href="#linear-gradient"/><linearGradient id="linear-gradient-73" x1="676.24" y1="75.5" x2="708.44" y2="75.5" gradientTransform="translate(-297.3)" xlink:href="#linear-gradient"/><linearGradient id="linear-gradient-74" x1="676.44" y1="96.2" x2="704.14" y2="96.2" gradientTransform="translate(-297.3)" xlink:href="#linear-gradient"/><linearGradient id="linear-gradient-75" x1="680.64" y1="115.45" x2="730.54" y2="115.45" gradientTransform="translate(-297.3)" xlink:href="#linear-gradient"/><linearGradient id="linear-gradient-76" x1="717.11" y1="135.39" x2="751.91" y2="135.39" gradientTransform="matrix(1, -0.01, 0.01, 1, -298.99, 3.07)" xlink:href="#linear-gradient"/><linearGradient id="linear-gradient-77" x1="718.51" y1="146.84" x2="748.41" y2="146.84" gradientTransform="matrix(1, -0.01, 0.01, 1, -298.99, 3.07)" xlink:href="#linear-gradient"/><linearGradient id="linear-gradient-78" x1="704.31" y1="197.39" x2="712.51" y2="197.39" gradientTransform="matrix(1, -0.01, 0.01, 1, -298.99, 3.07)" xlink:href="#linear-gradient"/><linearGradient id="linear-gradient-79" x1="710.21" y1="207.09" x2="713.81" y2="207.09" gradientTransform="matrix(1, -0.01, 0.01, 1, -298.99, 3.07)" xlink:href="#linear-gradient"/><linearGradient id="linear-gradient-80" x1="703.81" y1="189.99" x2="715.91" y2="189.99" gradientTransform="matrix(1, -0.01, 0.01, 1, -298.99, 3.07)" xlink:href="#linear-gradient"/><linearGradient id="linear-gradient-81" x1="716.91" y1="206.59" x2="720.21" y2="206.59" gradientTransform="matrix(1, -0.01, 0.01, 1, -298.99, 3.07)" xlink:href="#linear-gradient"/><linearGradient id="linear-gradient-82" x1="718.01" y1="197.59" x2="719.11" y2="197.59" gradientTransform="matrix(1, -0.01, 0.01, 1, -298.99, 3.07)" xlink:href="#linear-gradient"/><linearGradient id="linear-gradient-83" x1="704.61" y1="173.44" x2="721.51" y2="173.44" gradientTransform="matrix(1, -0.01, 0.01, 1, -298.99, 3.07)" xlink:href="#linear-gradient"/><linearGradient id="linear-gradient-84" x1="719.91" y1="183.54" x2="723.11" y2="183.54" gradientTransform="matrix(1, -0.01, 0.01, 1, -298.99, 3.07)" xlink:href="#linear-gradient"/><linearGradient id="linear-gradient-85" x1="721.21" y1="170.69" x2="731.61" y2="170.69" gradientTransform="matrix(1, -0.01, 0.01, 1, -298.99, 3.07)" xlink:href="#linear-gradient"/><linearGradient id="linear-gradient-86" x1="729.01" y1="168.09" x2="751.91" y2="168.09" gradientTransform="matrix(1, -0.01, 0.01, 1, -298.99, 3.07)" xlink:href="#linear-gradient"/><linearGradient id="linear-gradient-87" x1="738.81" y1="164.94" x2="755.41" y2="164.94" gradientTransform="matrix(1, -0.01, 0.01, 1, -298.99, 3.07)" xlink:href="#linear-gradient"/><linearGradient id="linear-gradient-88" x1="831.14" y1="159.75" x2="862.34" y2="159.75" gradientTransform="translate(-297.3)" xlink:href="#linear-gradient"/><linearGradient id="linear-gradient-89" x1="829.54" y1="128.7" x2="844.24" y2="128.7" gradientTransform="translate(-297.3)" xlink:href="#linear-gradient"/><linearGradient id="linear-gradient-90" x1="807.54" y1="138.45" x2="825.14" y2="138.45" gradientTransform="translate(-297.3)" xlink:href="#linear-gradient"/><linearGradient id="linear-gradient-91" x1="796.54" y1="116.85" x2="821.74" y2="116.85" gradientTransform="translate(-297.3)" xlink:href="#linear-gradient"/><linearGradient id="linear-gradient-92" x1="785.34" y1="116.3" x2="799.64" y2="116.3" gradientTransform="translate(-297.3)" xlink:href="#linear-gradient"/><linearGradient id="linear-gradient-93" x1="774.54" y1="95.85" x2="798.14" y2="95.85" gradientTransform="translate(-297.3)" xlink:href="#linear-gradient"/><linearGradient id="linear-gradient-94" x1="766.04" y1="108.4" x2="790.34" y2="108.4" gradientTransform="translate(-297.3)" xlink:href="#linear-gradient"/><linearGradient id="linear-gradient-95" x1="740.24" y1="100.9" x2="768.14" y2="100.9" gradientTransform="translate(-297.3)" xlink:href="#linear-gradient"/><linearGradient id="linear-gradient-96" x1="739.34" y1="84.7" x2="767.24" y2="84.7" gradientTransform="translate(-297.3)" xlink:href="#linear-gradient"/><linearGradient id="linear-gradient-97" x1="739.94" y1="130.75" x2="761.94" y2="130.75" gradientTransform="translate(-297.3)" xlink:href="#linear-gradient"/><linearGradient id="linear-gradient-98" x1="758.74" y1="137.9" x2="789.84" y2="137.9" gradientTransform="translate(-297.3)" xlink:href="#linear-gradient"/><linearGradient id="linear-gradient-99" x1="762.94" y1="146.5" x2="801.44" y2="146.5" gradientTransform="translate(-297.3)" xlink:href="#linear-gradient"/><linearGradient id="linear-gradient-100" x1="796.14" y1="137" x2="821.14" y2="137" gradientTransform="translate(-297.3)" xlink:href="#linear-gradient"/><linearGradient id="linear-gradient-101" x1="807.14" y1="169.35" x2="826.64" y2="169.35" gradientTransform="translate(-297.3)" xlink:href="#linear-gradient"/><linearGradient id="linear-gradient-102" x1="826.84" y1="124.15" x2="841.94" y2="124.15" gradientTransform="translate(-297.3)" xlink:href="#linear-gradient"/><linearGradient id="linear-gradient-103" x1="828.54" y1="169.75" x2="842.64" y2="169.75" gradientTransform="translate(-297.3)" xlink:href="#linear-gradient"/><linearGradient id="linear-gradient-104" x1="832.34" y1="176.35" x2="864.54" y2="176.35" gradientTransform="translate(-297.3)" xlink:href="#linear-gradient"/><linearGradient id="linear-gradient-105" x1="838.34" y1="187.35" x2="869.74" y2="187.35" gradientTransform="translate(-297.3)" xlink:href="#linear-gradient"/><linearGradient id="linear-gradient-106" x1="870.64" y1="185.8" x2="874.94" y2="185.8" gradientTransform="translate(-297.3)" xlink:href="#linear-gradient"/><linearGradient id="linear-gradient-107" x1="874.24" y1="190.3" x2="881.04" y2="190.3" gradientTransform="translate(-297.3)" xlink:href="#linear-gradient"/><linearGradient id="linear-gradient-108" x1="875.34" y1="206.3" x2="889.54" y2="206.3" gradientTransform="translate(-297.3)" xlink:href="#linear-gradient"/><linearGradient id="linear-gradient-109" x1="878.84" y1="213.55" x2="885.44" y2="213.55" gradientTransform="translate(-297.3)" xlink:href="#linear-gradient"/><linearGradient id="linear-gradient-110" x1="886.74" y1="219.55" x2="890.64" y2="219.55" gradientTransform="translate(-297.3)" xlink:href="#linear-gradient"/></defs><g id="Layer_2" data-name="Layer 2"><g id="rams"><g id="ram-g-l"><g id="head-l"><polygon points="181.29 72.85 182.43 83.26 182.43 83.36 184.81 105.17 157.91 104.73 181.29 72.85" fill="url(#linear-gradient)"/><polygon points="218.3 17.3 232.6 21.9 198.7 30 218.3 17.3" fill="url(#linear-gradient-2)"/><polygon points="244.6 0.2 239.4 19.4 223 14.2 244.6 0.2" fill="url(#linear-gradient-3)"/><polygon points="260.6 13.9 243.6 19 248.8 0 260.6 13.9" fill="url(#linear-gradient-4)"/><polygon points="266 47.4 244.6 23.2 262.7 17.9 266 47.4" fill="url(#linear-gradient-5)"/><polygon points="175.4 47 154.6 100.4 146.9 65.3 175.4 47" fill="url(#linear-gradient-6)"/><polygon points="180.4 67.2 161.2 93.8 178.4 49.9 180.4 67.2" fill="url(#linear-gradient-7)"/><polygon points="213.6 57.8 192.4 58.8 184.5 46.4 213.6 57.8" fill="url(#linear-gradient-8)"/><polygon points="225.4 67.1 238 91.8 223.6 103.3 225.4 67.1" fill="url(#linear-gradient-9)"/><polygon points="258.5 75.3 241.3 89.1 228.2 63.5 258.5 75.3" fill="url(#linear-gradient-10)"/><polygon points="270.2 56.6 293.9 60.8 266 71.2 270.2 56.6" fill="url(#linear-gradient-11)"/><polygon points="296.7 56.6 270.7 52.1 267.4 22 296.7 56.6" fill="url(#linear-gradient-12)"/><polygon points="265.2 76.1 296.4 64.6 268.6 102.5 265.2 76.1" fill="url(#linear-gradient-13)"/><polygon points="264.8 105.8 253.3 105.7 253.2 105.7 253.1 105.7 253 105.7 252.9 105.7 227.4 105.6 261.2 78.7 264.8 105.8" fill="url(#linear-gradient-14)"/><polygon points="255.5 110.1 262.9 110.2 256.9 118.4 255.5 110.1" fill="url(#linear-gradient-15)"/><path d="M221.9,145.6l1.3-35.7,28,.2,2.2,13-20.2,27.5-4.3-4.9-.3-.3c-.1-.1-.3-.1-.4-.2s-.3-.1-.5-.1h-.5Z" fill="url(#linear-gradient-16)"/><polygon points="195 62.9 221.7 61.7 219.7 101.3 195 62.9" fill="url(#linear-gradient-17)"/><path d="M214.4,100.7,185.9,81.8l-1.7-14.1v-.4l-2-17Z" fill="url(#linear-gradient-18)"/><polygon points="214.2 105.4 188.6 105.1 186.5 87 214.2 105.4" fill="url(#linear-gradient-19)"/><polygon points="177 122 160.1 108.9 186.9 109.3 210 109.7 177 122" fill="url(#linear-gradient-20)"/></g><g id="leg-l"><polygon points="173.86 124.44 138.78 151.06 155.42 109.84 173.86 124.44" fill="url(#linear-gradient-21)"/><polygon points="164.09 149.73 142.25 153.4 172.4 130.62 164.09 149.73" fill="url(#linear-gradient-22)"/><polygon points="177.71 194.48 185.97 188.57 181.68 197.13 177.71 194.48" fill="url(#linear-gradient-23)"/><polygon points="176.37 198.37 179.94 200.71 176.98 206.57 176.37 198.37" fill="url(#linear-gradient-24)"/><polygon points="174.47 179.95 186.53 182.98 175.65 190.76 174.94 182.45 174.94 182.35 174.94 182.25 174.94 182.05 174.94 182.05 174.47 179.95" fill="url(#linear-gradient-25)"/><polygon points="172.57 198.23 173.19 205.63 169.95 200.1 172.57 198.23" fill="url(#linear-gradient-26)"/><polygon points="171.11 194.21 172.04 191.62 172.22 193.42 171.11 194.21" fill="url(#linear-gradient-27)"/><polygon points="169.09 158.99 185.78 178.67 173.21 175.53 169.09 158.99" fill="url(#linear-gradient-28)"/><polygon points="167.28 178.27 170.38 179 170.47 179.4 167.28 178.27" fill="url(#linear-gradient-29)"/><polygon points="158.85 171.88 164.91 157.44 169.22 174.49 158.85 171.88" fill="url(#linear-gradient-30)"/><polygon points="138.61 166.76 161.63 155.61 155.16 170.94 138.61 166.76" fill="url(#linear-gradient-31)"/><polygon points="135.13 164.02 136.09 158.53 151.82 155.9 135.13 164.02" fill="url(#linear-gradient-32)"/></g><g id="torso-l"><polygon points="59.5 151.9 28.3 172 45.4 147.5 59.5 151.9" fill="url(#linear-gradient-33)"/><polygon points="46.7 109 61.1 148.4 46.4 143.9 46.7 109" fill="url(#linear-gradient-34)"/><polygon points="66.7 121.8 83.1 155.1 65.5 149.7 66.7 121.8" fill="url(#linear-gradient-35)"/><polygon points="87.5 103.3 94.1 130.4 68.9 115.3 87.5 103.3" fill="url(#linear-gradient-36)"/><polygon points="91 103.7 105.3 110.1 97.2 128.9 91 103.7" fill="url(#linear-gradient-37)"/><polygon points="116.1 85.1 106.8 106.6 92.5 100.2 116.1 85.1" fill="url(#linear-gradient-38)"/><polygon points="119.3 86.4 124.6 118.7 100.3 130.4 119.3 86.4" fill="url(#linear-gradient-39)"/><polygon points="122.5 84.6 150.4 106.3 127.9 117.2 122.5 84.6" fill="url(#linear-gradient-40)"/><polygon points="143.7 67.4 151.3 102 123.4 80.4 143.7 67.4" fill="url(#linear-gradient-41)"/><polygon points="128.7 121.2 150.7 110.7 135 150.8 128.7 121.2" fill="url(#linear-gradient-42)"/><polygon points="131.9 153.1 100.8 134.4 125.4 122.7 131.9 153.1" fill="url(#linear-gradient-43)"/><polygon points="89.2 156.1 97.5 136.9 127.7 155.1 89.2 156.1" fill="url(#linear-gradient-44)"/><polygon points="86.3 154 69.5 120 94.5 135.1 86.3 154" fill="url(#linear-gradient-45)"/><polygon points="64 185.1 65.4 153.6 83.5 159.2 64 185.1" fill="url(#linear-gradient-46)"/><polygon points="48.7 105.2 63.8 116.4 62.6 143.1 48.7 105.2" fill="url(#linear-gradient-47)"/><polygon points="60.7 185 48 163.5 62.1 154.5 60.7 185" fill="url(#linear-gradient-48)"/><polygon points="58.3 187.4 26.1 177.6 45.3 165.3 58.3 187.4" fill="url(#linear-gradient-49)"/><path d="M20.9,194.2l2.3-13.7,29.1,8.9-27.9,2.4H24c-.1,0-.1.1-.2.1a.35.35,0,0,0-.2.1Z" fill="url(#linear-gradient-50)"/><polygon points="18.3 191 15.7 181.7 20 180.6 18.3 191" fill="url(#linear-gradient-51)"/><polygon points="16.4 195.6 9.6 194.3 13.5 185 16.4 195.6" fill="url(#linear-gradient-52)"/><polygon points="15.3 199.1 1.1 214.9 8.2 197.7 15.3 199.1" fill="url(#linear-gradient-53)"/><polygon points="5.2 215.4 11.8 208.1 6.3 219 5.2 215.4" fill="url(#linear-gradient-54)"/><polygon points="0 221.1 2.9 217.9 3.9 221.2 0 221.1" fill="url(#linear-gradient-55)"/></g></g><g id="ram-g-r"><g id="head-r"><polygon points="435.43 104.73 408.53 105.17 410.91 83.36 410.91 83.26 412.05 72.85 435.43 104.73" fill="url(#linear-gradient-56)"/><polygon points="394.64 30 360.74 21.9 375.04 17.3 394.64 30" fill="url(#linear-gradient-57)"/><polygon points="370.34 14.2 353.94 19.4 348.74 0.2 370.34 14.2" fill="url(#linear-gradient-58)"/><polygon points="344.54 0 349.74 19 332.74 13.9 344.54 0" fill="url(#linear-gradient-59)"/><polygon points="330.64 17.9 348.74 23.2 327.34 47.4 330.64 17.9" fill="url(#linear-gradient-60)"/><polygon points="446.44 65.3 438.74 100.4 417.94 47 446.44 65.3" fill="url(#linear-gradient-61)"/><polygon points="414.94 49.9 432.14 93.8 412.94 67.2 414.94 49.9" fill="url(#linear-gradient-62)"/><polygon points="408.84 46.4 400.94 58.8 379.74 57.8 408.84 46.4" fill="url(#linear-gradient-63)"/><polygon points="369.74 103.3 355.34 91.8 367.94 67.1 369.74 103.3" fill="url(#linear-gradient-64)"/><polygon points="365.14 63.5 352.04 89.1 334.84 75.3 365.14 63.5" fill="url(#linear-gradient-65)"/><polygon points="327.34 71.2 299.44 60.8 323.14 56.6 327.34 71.2" fill="url(#linear-gradient-66)"/><polygon points="325.94 22 322.64 52.1 296.64 56.6 325.94 22" fill="url(#linear-gradient-67)"/><polygon points="324.74 102.5 296.94 64.6 328.14 76.1 324.74 102.5" fill="url(#linear-gradient-68)"/><polygon points="332.14 78.7 365.94 105.6 340.44 105.7 340.34 105.7 340.24 105.7 340.14 105.7 340.04 105.7 328.54 105.8 332.14 78.7" fill="url(#linear-gradient-69)"/><polygon points="336.44 118.4 330.44 110.2 337.84 110.1 336.44 118.4" fill="url(#linear-gradient-70)"/><path d="M366.14,145.1h-.5c-.2,0-.3.1-.5.1s-.3.1-.4.2l-.3.3-4.3,4.9-20.2-27.5,2.2-13,28-.2,1.3,35.7Z" fill="url(#linear-gradient-71)"/><polygon points="373.64 101.3 371.64 61.7 398.34 62.9 373.64 101.3" fill="url(#linear-gradient-72)"/><path d="M411.14,50.3l-2,17v.4l-1.7,14.1-28.5,18.9Z" fill="url(#linear-gradient-73)"/><polygon points="406.84 87 404.74 105.1 379.14 105.4 406.84 87" fill="url(#linear-gradient-74)"/><polygon points="383.34 109.7 406.44 109.3 433.24 108.9 416.34 122 383.34 109.7" fill="url(#linear-gradient-75)"/></g><g id="leg-r"><polygon points="437.92 109.84 454.56 151.06 419.48 124.44 437.92 109.84" fill="url(#linear-gradient-76)"/><polygon points="420.94 130.62 451.09 153.4 429.25 149.73 420.94 130.62" fill="url(#linear-gradient-77)"/><polygon points="411.66 197.13 407.36 188.57 415.63 194.48 411.66 197.13" fill="url(#linear-gradient-78)"/><polygon points="416.36 206.57 413.39 200.71 416.97 198.37 416.36 206.57" fill="url(#linear-gradient-79)"/><polygon points="418.39 182.05 418.39 182.05 418.4 182.25 418.4 182.35 418.4 182.45 417.69 190.76 406.8 182.98 418.87 179.95 418.39 182.05" fill="url(#linear-gradient-80)"/><polygon points="423.39 200.1 420.15 205.63 420.77 198.23 423.39 200.1" fill="url(#linear-gradient-81)"/><polygon points="421.12 193.42 421.3 191.62 422.23 194.21 421.12 193.42" fill="url(#linear-gradient-82)"/><polygon points="420.13 175.53 407.56 178.67 424.25 158.99 420.13 175.53" fill="url(#linear-gradient-83)"/><polygon points="422.87 179.4 422.96 179 426.06 178.27 422.87 179.4" fill="url(#linear-gradient-84)"/><polygon points="424.11 174.49 428.43 157.44 434.49 171.88 424.11 174.49" fill="url(#linear-gradient-85)"/><polygon points="438.18 170.94 431.71 155.61 454.73 166.76 438.18 170.94" fill="url(#linear-gradient-86)"/><polygon points="441.51 155.9 457.24 158.53 458.2 164.02 441.51 155.9" fill="url(#linear-gradient-87)"/></g><g id="torso-r"><polygon points="547.94 147.5 565.04 172 533.84 151.9 547.94 147.5" fill="url(#linear-gradient-88)"/><polygon points="546.94 143.9 532.24 148.4 546.64 109 546.94 143.9" fill="url(#linear-gradient-89)"/><polygon points="527.84 149.7 510.24 155.1 526.64 121.8 527.84 149.7" fill="url(#linear-gradient-90)"/><polygon points="524.44 115.3 499.24 130.4 505.84 103.3 524.44 115.3" fill="url(#linear-gradient-91)"/><polygon points="496.14 128.9 488.04 110.1 502.34 103.7 496.14 128.9" fill="url(#linear-gradient-92)"/><polygon points="500.84 100.2 486.54 106.6 477.24 85.1 500.84 100.2" fill="url(#linear-gradient-93)"/><polygon points="493.04 130.4 468.74 118.7 474.04 86.4 493.04 130.4" fill="url(#linear-gradient-94)"/><polygon points="465.44 117.2 442.94 106.3 470.84 84.6 465.44 117.2" fill="url(#linear-gradient-95)"/><polygon points="469.94 80.4 442.04 102 449.64 67.4 469.94 80.4" fill="url(#linear-gradient-96)"/><polygon points="458.34 150.8 442.64 110.7 464.64 121.2 458.34 150.8" fill="url(#linear-gradient-97)"/><polygon points="467.94 122.7 492.54 134.4 461.44 153.1 467.94 122.7" fill="url(#linear-gradient-98)"/><polygon points="465.64 155.1 495.84 136.9 504.14 156.1 465.64 155.1" fill="url(#linear-gradient-99)"/><polygon points="498.84 135.1 523.84 120 507.04 154 498.84 135.1" fill="url(#linear-gradient-100)"/><polygon points="509.84 159.2 527.94 153.6 529.34 185.1 509.84 159.2" fill="url(#linear-gradient-101)"/><polygon points="530.74 143.1 529.54 116.4 544.64 105.2 530.74 143.1" fill="url(#linear-gradient-102)"/><polygon points="531.24 154.5 545.34 163.5 532.64 185 531.24 154.5" fill="url(#linear-gradient-103)"/><polygon points="548.04 165.3 567.24 177.6 535.04 187.4 548.04 165.3" fill="url(#linear-gradient-104)"/><path d="M569.74,192a.35.35,0,0,0-.2-.1c-.1,0-.1-.1-.2-.1h-.4L541,189.4l29.1-8.9,2.3,13.7Z" fill="url(#linear-gradient-105)"/><polygon points="573.34 180.6 577.64 181.7 575.04 191 573.34 180.6" fill="url(#linear-gradient-106)"/><polygon points="579.84 185 583.74 194.3 576.94 195.6 579.84 185" fill="url(#linear-gradient-107)"/><polygon points="585.14 197.7 592.24 214.9 578.04 199.1 585.14 197.7" fill="url(#linear-gradient-108)"/><polygon points="587.04 219 581.54 208.1 588.14 215.4 587.04 219" fill="url(#linear-gradient-109)"/><polygon points="589.44 221.2 590.44 217.9 593.34 221.1 589.44 221.2" fill="url(#linear-gradient-110)"/></g></g></g></g></svg>