<svg xmlns="http://www.w3.org/2000/svg" shape-rendering="geometricPrecision" viewBox="0 0 593.34 221.2"><g id="Layer_2" data-name="Layer 2"><g id="rams"><g id="ram-g-l"><g id="head-l"><path d="M179.86,78.18l.57,5.18v.22l2.14,19.56-20.77-.35,18.05-24.61m1.43-5.33-23.38,31.88,26.9.44-2.38-21.81v-.1l-1.14-10.41Z" fill="#07acee"/><path d="M218.59,19.49l6.59,2.13-15.63,3.73,9-5.86m-.29-2.19L198.7,30l33.9-8.1-14.3-4.6Z" fill="#07acee"/><path d="M241.3,4.72,238,16.86l-10.38-3.29L241.3,4.72M244.6.2,223,14.2l16.4,5.2L244.6.2Z" fill="#07acee"/><path d="M249.73,4.18l7.37,8.68-10.62,3.19,3.25-11.87M248.8,0l-5.2,19,17-5.1L248.8,0Z" fill="#07acee"/><path d="M261,20.49l2.33,20.85L248.18,24.23,261,20.49m1.72-2.59-18.1,5.3L266,47.4l-3.3-29.5Z" fill="#07acee"/><path d="M171.3,52l-16.16,41.5-6-27.28L171.3,52m4.1-5L146.9,65.3l7.7,35.1L175.4,47Z" fill="#07acee"/><path d="M177.33,58.1l1,8.56-9.49,13.16,8.5-21.72m1.07-8.2L161.2,93.8l19.2-26.6-2-17.3Z" fill="#07acee"/><path d="M189.48,50.5l14.66,5.74-10.68.51-4-6.25m-5-4.1,7.9,12.4,21.2-1L184.5,46.4Z" fill="#07acee"/><path d="M227,74.69l8.45,16.57L225.82,99,227,74.69M225.4,67.1l-1.8,36.2L238,91.8,225.4,67.1Z" fill="#07acee"/><path d="M232.38,67.27l22.17,8.64L242,86l-9.58-18.73M228.2,63.5l13.1,25.6,17.2-13.8L228.2,63.5Z" fill="#07acee"/><path d="M271.62,58.88l14.71,2.61L269,67.94l2.6-9.06M270.2,56.6,266,71.2l27.9-10.4-23.7-4.2Z" fill="#07acee"/><path d="M270.1,28.28l21.52,25.41-19.1-3.3L270.1,28.28M267.4,22l3.3,30.1,26,4.5L267.4,22Z" fill="#07acee"/><path d="M290.86,68.77,269.94,97.29l-2.55-19.86,23.47-8.66m5.54-4.17L265.2,76.1l3.4,26.4,27.8-37.9Z" fill="#07acee"/><path d="M259.68,82.46l2.83,21.32-9.21-.08h-.39l-19.81-.08,26.58-21.16m1.52-3.76-33.8,26.9,25.5.1h.4l11.5.1-3.6-27.1Z" fill="#07acee"/><path d="M257.87,112.13l1.13,0-.92,1.24-.21-1.26m-2.37-2,1.4,8.3,6-8.2-7.4-.1Z" fill="#07acee"/><path d="M225.13,111.91l24.38.18,1.78,10.51-18.23,24.81-2.66-3,0,0-.05,0-.3-.3a2.18,2.18,0,0,0-.65-.46l-.33-.33h-.62a2.45,2.45,0,0,0-.71-.1H227l-3,.28,1.15-31.48m-1.93-2-1.3,35.7,5.3-.5h.5c.2,0,.3.1.5.1s.3.1.4.2l.3.3,4.3,4.9,20.2-27.5-2.2-13-28-.2Z" fill="#07acee"/><path d="M219.59,63.8,218,95,198.56,64.74l21-.94m2.11-2.1L195,62.9l24.7,38.4,2-39.6Z" fill="#07acee"/><path d="M185.2,58.72,207.62,93.8,187.78,80.64,186.2,67.58v-.51l-1-8.35m-3-8.42,2,17v.4l1.7,14.1,28.5,18.9L182.2,50.3Z" fill="#07acee"/><path d="M189,91.05l18.48,12.27-17.08-.2L189,91.05m-2.48-4,2.1,18.1,25.6.3L186.5,87Z" fill="#07acee"/><path d="M166.06,111l20.81.31,12.53.22-22.05,8.22L166.06,111m-6-2.09L177,122l33-12.3-23.1-.4-26.8-.4Z" fill="#07acee"/></g><g id="leg-l"><path d="M156.27,113.06,170.6,124.4l-27.25,20.68,12.92-32m-.85-3.22-16.64,41.22,35.08-26.62-18.44-14.6Z" fill="#07acee"/><path d="M167.53,136.81l-4.84,11.13L150,150.08l17.56-13.27m4.87-6.19L142.25,153.4l21.84-3.67,8.31-19.11Z" fill="#07acee"/><polygon points="185.97 188.57 177.71 194.48 181.68 197.13 185.97 188.57 185.97 188.57" fill="#07acee"/><polygon points="176.37 198.37 176.98 206.57 179.94 200.71 176.37 198.37 176.37 198.37" fill="#07acee"/><path d="M177,182.63l4.9,1.23-4.52,3.23-.38-4.46M174.47,180l.47,2.1v.4l.71,8.31L186.53,183l-12.06-3Z" fill="#07acee"/><polygon points="172.57 198.23 169.95 200.1 173.19 205.63 172.57 198.23 172.57 198.23" fill="#07acee"/><polygon points="172.04 191.62 171.11 194.21 172.22 193.42 172.04 191.62 172.04 191.62" fill="#07acee"/><path d="M173.1,166.81l7.14,8.41-5.38-1.34-1.76-7.07m-4-7.82,4.12,16.54,12.57,3.14L169.09,159Z" fill="#07acee"/><polygon points="167.28 178.27 170.47 179.4 170.38 179 167.28 178.27 167.28 178.27" fill="#07acee"/><path d="M164.44,163.73l2,8-4.86-1.22,2.84-6.78m.47-6.29-6.06,14.44,10.37,2.61-4.31-17.05Z" fill="#07acee"/><path d="M157.72,159.72,154,168.58l-9.57-2.42,13.3-6.44m3.91-4.11-23,11.15,16.55,4.18,6.47-15.33Z" fill="#07acee"/><path d="M138.51,160.16l-.73.35,0-.24.69-.11m13.31-4.26-15.73,2.63-1,5.49,16.68-8.12Z" fill="#07acee"/></g><g id="torso-l"><path d="M46.2,149.85l8.62,2.69L35.75,164.82l10.45-15m-.8-2.35L28.3,172l31.2-20.1-14.1-4.4Z" fill="#07acee"/><path d="M48.61,120l9.23,25.27-9.43-2.89.2-22.38M46.7,109l-.3,34.9,14.7,4.5L46.7,109Z" fill="#07acee"/><path d="M68.36,129.7l10.9,22.13-11.7-3.59.8-18.54m-1.66-7.9-1.2,27.9,17.6,5.4L66.7,121.8Z" fill="#07acee"/><path d="M86.22,106.5,91,126.23l-18.33-11,13.53-8.74m1.28-3.2-18.6,12,25.2,15.1-6.6-27.1Z" fill="#07acee"/><path d="M93.92,107.2l8.76,3.92-5,11.52-3.8-15.44M91,103.7l6.2,25.2,8.1-18.8L91,103.7Z" fill="#07acee"/><path d="M111.67,90.31,105.77,104,96.7,99.89l15-9.58m4.43-5.21L92.5,100.2l14.3,6.4,9.3-21.5Z" fill="#07acee"/><path d="M118.43,93.46l3.95,24.09-18.12,8.72,14.17-32.81m.87-7.06-19,44,24.3-11.7-5.3-32.3Z" fill="#07acee"/><path d="M125.31,89.32l21.32,16.58-17.19,8.33-4.13-24.91M122.5,84.6l5.4,32.6,22.5-10.9L122.5,84.6Z" fill="#07acee"/><path d="M142.36,70.63,148.16,97,126.87,80.55l15.49-9.92m1.34-3.23-20.3,13L151.3,102l-7.6-34.6Z" fill="#07acee"/><path d="M147,114.69l-11.42,29.17L131,122.33l16-7.64m3.71-4-22,10.5,6.3,29.6,15.7-40.1Z" fill="#07acee"/><path d="M124,125.59,129,149l-24-14.4,19-9m1.43-2.89-24.6,11.7,31.1,18.7-6.5-30.4Z" fill="#07acee"/><path d="M98.43,139.79l22.37,13.49L92.28,154l6.15-14.23m-.93-2.89-8.3,19.2,38.5-1L97.5,136.9Z" fill="#07acee"/><path d="M74.33,125.25,92,135.91l-5.79,13.34-11.85-24M69.5,120l16.8,34,8.2-18.9L69.5,120Z" fill="#07acee"/><path d="M67.28,156.28l12.91,4L66.28,178.74l1-22.46M65.4,153.6,64,185.1l19.5-25.9-18.1-5.6Z" fill="#07acee"/><path d="M52.88,110.79l8.87,6.58-.7,15.69-8.17-22.27M48.7,105.2l13.9,37.9,1.2-26.7L48.7,105.2Z" fill="#07acee"/><path d="M59.93,158.26l-.92,20L50.7,164.15l9.23-5.89m2.17-3.76-14.1,9L60.7,185l1.4-30.5Z" fill="#07acee"/><path d="M44.63,168.1,54,184l-23.15-7,13.8-8.85m.67-2.8L26.1,177.6l32.2,9.8-13-22.1Z" fill="#07acee"/><path d="M24.8,183.08l17,5.21L24.31,189.8H24l-.34,0,1.14-6.75m-1.6-2.58-2.3,13.7,2.7-2.2a.35.35,0,0,1,.2-.1c.1,0,.1-.1.2-.1h.4l27.9-2.4-29.1-8.9Z" fill="#07acee"/><polygon points="20 180.6 15.7 181.7 18.3 191 20 180.6 20 180.6" fill="#07acee"/><path d="M13.1,191.12l.52,1.91-1.22-.23.7-1.68m.4-6.12-3.9,9.3,6.8,1.3L13.5,185Z" fill="#07acee"/><path d="M9.42,200l2,.4-4.07,4.53,2-4.93M8.2,197.7,1.1,214.9l14.2-15.8-7.1-1.4Z" fill="#07acee"/><polygon points="11.8 208.1 5.2 215.4 6.3 219 11.8 208.1 11.8 208.1" fill="#07acee"/><polygon points="2.9 217.9 0 221.1 3.9 221.2 2.9 217.9 2.9 217.9" fill="#07acee"/></g></g><g id="ram-g-r"><g id="head-r"><path d="M413.48,78.18l18,24.61-20.77.35,2.14-19.56v-.22l.57-5.18m-1.43-5.33-1.14,10.41v.1l-2.38,21.81,26.9-.44L412.05,72.85Z" fill="#07acee"/><path d="M374.75,19.49l9,5.86-15.63-3.73,6.6-2.13M375,17.3l-14.3,4.6,33.9,8.1L375,17.3Z" fill="#07acee"/><path d="M352,4.72l13.67,8.85-10.38,3.29L352,4.72M348.74.2l5.2,19.2,16.4-5.2L348.74.2Z" fill="#07acee"/><path d="M343.61,4.18l3.25,11.87-10.62-3.19,7.37-8.68M344.54,0l-11.8,13.9,17,5.1-5.2-19Z" fill="#07acee"/><path d="M332.36,20.49l12.79,3.74L330,41.34l2.33-20.85m-1.72-2.59-3.3,29.5,21.4-24.2-18.1-5.3Z" fill="#07acee"/><path d="M422,52l22.15,14.22-6,27.28L422,52m-4.1-5,20.8,53.4,7.7-35.1L417.94,47Z" fill="#07acee"/><path d="M416,58.1l8.51,21.72L415,66.66l1-8.56m-1.06-8.2-2,17.3,19.2,26.6-17.2-43.9Z" fill="#07acee"/><path d="M403.85,50.5l-4,6.25-10.68-.51,14.66-5.74m5-4.1-29.1,11.4,21.2,1,7.9-12.4Z" fill="#07acee"/><path d="M366.31,74.69,367.52,99l-9.66-7.71,8.45-16.57m1.63-7.59-12.6,24.7,14.4,11.5-1.8-36.2Z" fill="#07acee"/><path d="M361,67.27,351.38,86,338.79,75.91,361,67.27m4.18-3.77-30.3,11.8L352,89.1l13.1-25.6Z" fill="#07acee"/><path d="M321.71,58.88l2.61,9.06L307,61.49l14.7-2.61m1.43-2.28-23.7,4.2,27.9,10.4-4.2-14.6Z" fill="#07acee"/><path d="M323.24,28.28l-2.43,22.11-19.09,3.3,21.52-25.41m2.7-6.28-29.3,34.6,26-4.5,3.3-30.1Z" fill="#07acee"/><path d="M302.48,68.77,326,77.43l-2.56,19.86L302.48,68.77m-5.54-4.17,27.8,37.9,3.4-26.4-31.2-11.5Z" fill="#07acee"/><path d="M333.66,82.46l26.58,21.16-19.8.08H340l-9.2.08,2.84-21.32m-1.52-3.76-3.6,27.1,11.5-.1h.4l25.5-.1-33.8-26.9Z" fill="#07acee"/><path d="M335.47,112.13l-.22,1.26-.91-1.24,1.13,0m2.37-2-7.4.1,6,8.2,1.4-8.3Z" fill="#07acee"/><path d="M368.21,111.91l1.15,31.48-3-.28h-.69a2.51,2.51,0,0,0-.71.1h-.62l-.33.33a2.34,2.34,0,0,0-.66.46l-.3.3,0,0,0,0-2.66,3L342.05,122.6l1.78-10.51,24.38-.18m1.93-2-28,.2-2.2,13,20.2,27.5,4.3-4.9.3-.3c.1-.1.3-.1.4-.2s.3-.1.5-.1h.5l5.3.5-1.3-35.7Z" fill="#07acee"/><path d="M373.75,63.8l21,.94L375.32,95,373.75,63.8m-2.11-2.1,2,39.6,24.7-38.4-26.7-1.2Z" fill="#07acee"/><path d="M408.13,58.72l-1,8.35v.51l-1.58,13.06L385.72,93.8l22.41-35.08m3-8.42-32.2,50.4,28.5-18.9,1.7-14.1v-.4l2-17Z" fill="#07acee"/><path d="M404.36,91.05,403,103.12l-17.07.2,18.48-12.27m2.48-4-27.7,18.4,25.6-.3,2.1-18.1Z" fill="#07acee"/><path d="M427.28,111,416,119.74l-22.05-8.22,12.53-.22,20.81-.31m6-2.09-26.8.4-23.1.4,33,12.3,16.9-13.1Z" fill="#07acee"/></g><g id="leg-r"><path d="M437.06,113.06l12.93,32L422.74,124.4l14.32-11.34m.86-3.22-18.45,14.6,35.09,26.62-16.64-41.22Z" fill="#07acee"/><path d="M425.81,136.81l17.56,13.27-12.72-2.14-4.84-11.13m-4.87-6.19,8.31,19.11,21.84,3.67-30.15-22.78Z" fill="#07acee"/><polygon points="407.36 188.57 411.66 197.13 415.63 194.48 407.36 188.57 407.36 188.57" fill="#07acee"/><polygon points="416.97 198.37 413.39 200.71 416.36 206.57 416.97 198.37 416.97 198.37" fill="#07acee"/><path d="M416.38,182.63l-.38,4.46-4.52-3.23,4.9-1.23m2.49-2.68-12.07,3,10.89,7.78.71-8.31v-.4l.48-2.1Z" fill="#07acee"/><polygon points="420.77 198.23 420.15 205.63 423.39 200.1 420.77 198.23 420.77 198.23" fill="#07acee"/><polygon points="421.3 191.62 421.12 193.42 422.23 194.21 421.3 191.62 421.3 191.62" fill="#07acee"/><path d="M420.24,166.81l-1.77,7.07-5.37,1.34,7.14-8.41m4-7.82-16.69,19.68,12.56-3.14L424.25,159Z" fill="#07acee"/><polygon points="426.06 178.27 422.96 179 422.87 179.4 426.06 178.27 426.06 178.27" fill="#07acee"/><path d="M428.9,163.73l2.84,6.78-4.86,1.22,2-8m-.47-6.29-4.32,17.05,10.38-2.61-6.06-14.44Z" fill="#07acee"/><path d="M435.62,159.72l13.3,6.44-9.57,2.42-3.73-8.86m-3.91-4.11,6.47,15.33,16.55-4.18-23-11.15Z" fill="#07acee"/><path d="M454.83,160.16l.69.11,0,.24-.73-.35m-13.32-4.26L458.2,164l-1-5.49-15.73-2.63Z" fill="#07acee"/></g><g id="torso-r"><path d="M547.14,149.85l10.45,15-19.07-12.28,8.62-2.69m.8-2.35-14.1,4.4L565,172l-17.1-24.5Z" fill="#07acee"/><path d="M544.73,120l.2,22.38-9.43,2.89L544.73,120m1.91-11-14.4,39.4,14.7-4.5-.3-34.9Z" fill="#07acee"/><path d="M525,129.7l.79,18.54-11.69,3.59L525,129.7m1.66-7.9-16.4,33.3,17.6-5.4-1.2-27.9Z" fill="#07acee"/><path d="M507.12,106.5l13.53,8.74-18.34,11,4.81-19.73m-1.28-3.2-6.6,27.1,25.2-15.1-18.6-12Z" fill="#07acee"/><path d="M499.42,107.2l-3.8,15.44-5-11.52,8.76-3.92m2.92-3.5L488,110.1l8.1,18.8,6.2-25.2Z" fill="#07acee"/><path d="M481.67,90.31l15,9.58L487.57,104l-5.9-13.64m-4.43-5.21,9.3,21.5,14.3-6.4-23.6-15.1Z" fill="#07acee"/><path d="M474.91,93.46l14.17,32.81L471,117.55l4-24.09M474,86.4l-5.3,32.3L493,130.4l-19-44Z" fill="#07acee"/><path d="M468,89.32l-4.13,24.91-17.19-8.33L468,89.32m2.81-4.72-27.9,21.7,22.5,10.9,5.4-32.6Z" fill="#07acee"/><path d="M451,70.63l15.49,9.92L445.18,97,451,70.63m-1.34-3.23L442,102l27.9-21.6-20.3-13Z" fill="#07acee"/><path d="M446.35,114.69l16,7.64-4.58,21.53-11.42-29.17m-3.71-4,15.7,40.1,6.3-29.6-22-10.5Z" fill="#07acee"/><path d="M469.37,125.59l18.94,9L464.36,149l5-23.42m-1.43-2.89-6.5,30.4,31.1-18.7-24.6-11.7Z" fill="#07acee"/><path d="M494.91,139.79,501.06,154l-28.52-.74,22.37-13.49m.93-2.89-30.2,18.2,38.5,1-8.3-19.2Z" fill="#07acee"/><path d="M519,125.25l-11.85,24-5.79-13.34L519,125.25m4.83-5.25-25,15.1L507,154l16.8-34Z" fill="#07acee"/><path d="M526.06,156.28l1,22.46-13.9-18.47,12.91-4m1.88-2.68-18.1,5.6,19.5,25.9-1.4-31.5Z" fill="#07acee"/><path d="M540.46,110.79l-8.17,22.27-.71-15.69,8.88-6.58m4.18-5.59-15.1,11.2,1.2,26.7,13.9-37.9Z" fill="#07acee"/><path d="M533.41,158.26l9.22,5.89-8.3,14.06-.92-20m-2.17-3.76,1.4,30.5,12.7-21.5-14.1-9Z" fill="#07acee"/><path d="M548.71,168.1l13.8,8.85-23.15,7,9.35-15.89m-.67-2.8-13,22.1,32.2-9.8L548,165.3Z" fill="#07acee"/><path d="M568.54,183.08l1.14,6.75-.34,0H569l-17.52-1.51,17-5.21m1.6-2.58L541,189.4l27.9,2.4h.4c.1,0,.1.1.2.1a.35.35,0,0,1,.2.1l2.7,2.2-2.3-13.7Z" fill="#07acee"/><polygon points="573.34 180.6 575.04 191 577.64 181.7 573.34 180.6 573.34 180.6" fill="#07acee"/><path d="M580.24,191.12l.7,1.68-1.23.23.53-1.91m-.4-6.12-2.9,10.6,6.8-1.3-3.9-9.3Z" fill="#07acee"/><path d="M583.92,200l2,4.93-4.07-4.53,2-.4m1.22-2.28-7.1,1.4,14.2,15.8-7.1-17.2Z" fill="#07acee"/><polygon points="581.54 208.1 587.04 219 588.14 215.4 581.54 208.1 581.54 208.1" fill="#07acee"/><polygon points="590.44 217.9 589.44 221.2 593.34 221.1 590.44 217.9 590.44 217.9" fill="#07acee"/></g></g></g></g></svg>