<svg xmlns="http://www.w3.org/2000/svg" viewBox="0 0 593.34 221.2"><g id="Layer_2" data-name="Layer 2"><g id="rams"><g id="ram-g-l"><g id="head-l"><polygon points="158.89 104.24 180.93 74.19 181.94 83.31 184.25 104.66 158.89 104.24" fill="#fff"/><path d="M180.58,75.52l.85,7.79v.16l2.25,20.69-23.83-.4,20.72-28.24m.71-2.67-23.38,31.88,26.9.44-2.38-21.81v-.1l-1.14-10.41Z" fill="#06baf2"/><polygon points="218.37 17.85 230.75 21.83 201.41 28.84 218.37 17.85" fill="#fff"/><path d="M218.45,18.4l10.44,3.36-24.76,5.92,14.32-9.28m-.15-1.1L198.7,30l33.9-8.1-14.3-4.6Z" fill="#06baf2"/><polygon points="224.16 14.04 243.78 1.33 239.05 18.77 224.16 14.04" fill="#fff"/><path d="M243,2.46l-4.24,15.67-13.39-4.24L243,2.46M244.6.2,223,14.2l16.4,5.2L244.6.2Z" fill="#06baf2"/><polygon points="249.03 1.05 259.72 13.64 244.32 18.26 249.03 1.05" fill="#fff"/><path d="M249.26,2.09l9.59,11.29L245,17.52l4.22-15.43M248.8,0l-5.2,19,17-5.1L248.8,0Z" fill="#06baf2"/><polygon points="245.5 23.46 262.27 18.55 265.33 45.88 245.5 23.46" fill="#fff"/><path d="M261.84,19.19l2.81,25.18L246.39,23.72l15.45-4.53m.86-1.29-18.1,5.3L266,47.4l-3.3-29.5Z" fill="#06baf2"/><polygon points="147.46 65.53 174.38 48.25 154.73 98.68 147.46 65.53" fill="#fff"/><path d="M173.35,49.5,154.87,97,148,65.77,173.35,49.5M175.4,47,146.9,65.3l7.7,35.1L175.4,47Z" fill="#06baf2"/><polygon points="178.13 51.95 179.88 67.06 163.11 90.3 178.13 51.95" fill="#fff"/><path d="M177.87,54l1.49,12.93L165,86.81,177.87,54m.53-4.1L161.2,93.8l19.2-26.6-2-17.3Z" fill="#06baf2"/><polygon points="185.75 47.42 211.24 57.41 192.67 58.29 185.75 47.42" fill="#fff"/><path d="M187,48.45,208.87,57l-15.94.75L187,48.45M184.5,46.4l7.9,12.4,21.2-1L184.5,46.4Z" fill="#06baf2"/><polygon points="225.81 69 237.37 91.66 224.15 102.22 225.81 69" fill="#fff"/><path d="M226.21,70.89l10.53,20.64-12,9.6,1.5-30.24m-.81-3.79-1.8,36.2L238,91.8,225.4,67.1Z" fill="#06baf2"/><polygon points="229.25 64.44 257.51 75.45 241.47 88.33 229.25 64.44" fill="#fff"/><path d="M230.29,65.39,256.52,75.6l-14.89,12L230.29,65.39M228.2,63.5l13.1,25.6,17.2-13.8L228.2,63.5Z" fill="#06baf2"/><polygon points="270.56 57.17 292.01 60.97 266.75 70.39 270.56 57.17" fill="#fff"/><path d="M270.91,57.74l19.2,3.4-22.6,8.43,3.4-11.83m-.71-1.14L266,71.2l27.9-10.4-23.7-4.2Z" fill="#06baf2"/><polygon points="271.16 51.67 268.07 23.57 295.43 55.87 271.16 51.67" fill="#fff"/><path d="M268.75,25.14l25.41,30-22.55-3.91-2.86-26.1M267.4,22l3.3,30.1,26,4.5L267.4,22Z" fill="#06baf2"/><polygon points="265.75 76.43 295.01 65.64 268.94 101.2 265.75 76.43" fill="#fff"/><path d="M293.63,66.69l-24.36,33.2-3-23.13,27.34-10.07m2.77-2.09L265.2,76.1l3.4,26.4,27.8-37.9Z" fill="#06baf2"/><polygon points="252.9 105.2 228.82 105.11 260.82 79.64 264.23 105.3 252.9 105.2" fill="#fff"/><path d="M260.44,80.58l3.22,24.21-10.36-.09h-.4l-22.65-.09,30.19-24m.76-1.88-33.8,26.9,25.5.1h.4l11.5.1-3.6-27.1Z" fill="#06baf2"/><polygon points="256.09 110.61 261.92 110.69 257.2 117.15 256.09 110.61" fill="#fff"/><path d="M256.69,111.12l4.26,0-3.46,4.73-.8-4.78m-1.19-1,1.4,8.3,6-8.2-7.4-.1Z" fill="#06baf2"/><path d="M229.28,145.37l-.33-.32a.83.83,0,0,0-.39-.22l-.15-.15-.21,0a1.48,1.48,0,0,0-.5-.1h-.5l-4.78.45,1.26-34.65,27.1.2L252.87,123l-19.7,26.82Z" fill="#fff"/><path d="M224.16,110.91l26.19.18,2,11.76L233.13,149l-3.48-4,0,0,0,0-.3-.3a1.39,1.39,0,0,0-.52-.31l-.18-.18h-.35a1.55,1.55,0,0,0-.56-.1h-.59l-4.17.4,1.22-33.59m-1-1-1.3,35.7,5.3-.5h.5c.2,0,.3.1.5.1s.3.1.4.2l.3.3,4.3,4.9,20.2-27.5-2.2-13-28-.2Z" fill="#06baf2"/><polygon points="195.89 63.36 221.17 62.23 219.28 99.72 195.89 63.36" fill="#fff"/><path d="M220.65,62.75l-1.79,35.39L196.78,63.82l23.87-1.07m1-1L195,62.9l24.7,38.4,2-39.6Z" fill="#06baf2"/><polygon points="186.37 81.51 184.7 67.64 184.7 67.37 184.7 67.24 182.95 52.4 212.71 98.98 186.37 81.51" fill="#fff"/><path d="M183.7,54.51,211,97.25l-24.17-16L185.2,67.6v-.42L183.7,54.51m-1.5-4.21,2,17v.4l1.7,14.1,28.5,18.9L182.2,50.3Z" fill="#06baf2"/><polygon points="189.05 104.61 187.12 88.01 212.51 104.88 189.05 104.61" fill="#fff"/><path d="M187.74,89l23.09,15.33-21.34-.25L187.74,89m-1.24-2,2.1,18.1,25.6.3L186.5,87Z" fill="#06baf2"/><polygon points="161.59 109.42 186.89 109.8 207.35 110.15 177.09 121.44 161.59 109.42" fill="#fff"/><path d="M163.08,109.94l23.8.36,17.82.31-27.53,10.26-14.09-10.93m-3-1L177,122l33-12.3-23.1-.4-26.8-.4Z" fill="#06baf2"/></g><g id="leg-l"><polygon points="155.63 110.64 173.05 124.43 139.92 149.56 155.63 110.64" fill="#fff"/><path d="M155.85,111.45l16.38,13-31.17,23.65,14.79-36.62m-.43-1.61-16.64,41.22,35.08-26.62-18.44-14.6Z" fill="#06baf2"/><polygon points="171.18 132.17 163.74 149.28 144.18 152.57 171.18 132.17" fill="#fff"/><path d="M170,133.71l-6.57,15.13-17.28,2.9,23.85-18m2.44-3.09L142.25,153.4l21.84-3.67,8.31-19.11Z" fill="#06baf2"/><polygon points="178.59 194.47 184.62 190.15 181.49 196.4 178.59 194.47" fill="#fff"/><path d="M183.27,191.74l-2,3.93-1.82-1.22,3.8-2.71m2.7-3.17-8.26,5.91,4,2.64,4.29-8.55Z" fill="#06baf2"/><polygon points="176.94 199.34 179.29 200.88 177.34 204.74 176.94 199.34" fill="#fff"/><path d="M177.52,200.31l1.13.74-.94,1.86-.19-2.6m-1.15-1.94.61,8.2,3-5.86-3.57-2.34Z" fill="#06baf2"/><polygon points="175.44 182.41 175.44 182 175.13 180.63 185.36 183.2 176.07 189.84 175.44 182.41" fill="#fff"/><path d="M175.8,181.31l8.39,2.11-7.69,5.5-.56-6.51v-.47l0-.11-.12-.52M174.47,180l.47,2.1v.4l.71,8.31L186.53,183l-12.06-3Z" fill="#06baf2"/><polygon points="170.61 200.24 172.15 199.15 172.51 203.48 170.61 200.24" fill="#fff"/><path d="M171.72,200.06l.11,1.26-.56-.94.45-.32m.85-1.83L170,200.1l3.24,5.53-.62-7.4Z" fill="#06baf2"/><polygon points="171.11 194.21 172.04 191.62 172.22 193.42 171.11 194.21" fill="#fff"/><polygon points="172.04 191.62 171.11 194.21 172.22 193.42 172.04 191.62 172.04 191.62" fill="#06baf2"/><polygon points="173.63 175.12 170.09 160.94 184.4 177.81 173.63 175.12" fill="#fff"/><path d="M171.1,162.9,183,177l-9-2.24L171.1,162.9m-2-3.91,4.12,16.54,12.57,3.14L169.09,159Z" fill="#06baf2"/><polygon points="167.28 178.27 170.38 179 170.47 179.4 167.28 178.27" fill="#fff"/><polygon points="167.28 178.27 170.47 179.4 170.38 179 167.28 178.27 167.28 178.27" fill="#06baf2"/><polygon points="159.54 171.53 164.79 159.01 168.53 173.8 159.54 171.53" fill="#fff"/><path d="M164.67,160.59l3.17,12.52-7.62-1.92,4.45-10.6m.24-3.15-6.06,14.44,10.37,2.61-4.31-17.05Z" fill="#06baf2"/><polygon points="140.06 166.61 160.65 156.63 154.87 170.35 140.06 166.61" fill="#fff"/><path d="M159.67,157.66l-5.1,12.1-13.06-3.3,18.16-8.8m2-2-23,11.15,16.55,4.18,6.47-15.33Z" fill="#06baf2"/><polygon points="136.53 158.97 148.5 156.96 135.8 163.14 136.53 158.97" fill="#fff"/><path d="M145.17,158l-8.71,4.24.5-2.87,8.21-1.37m6.65-2.13-15.73,2.63-1,5.49,16.68-8.12Z" fill="#06baf2"/></g><g id="torso-l"><polygon points="45.6 148.09 58.33 152.06 30.16 170.21 45.6 148.09" fill="#fff"/><path d="M45.8,148.67l11.36,3.55L32,168.41,45.8,148.67m-.4-1.17L28.3,172l31.2-20.1-14.1-4.4Z" fill="#06baf2"/><polygon points="46.9 143.53 47.18 111.76 60.29 147.63 46.9 143.53" fill="#fff"/><path d="M47.65,114.52l11.82,32.34-12.06-3.7.24-28.64M46.7,109l-.3,34.9,14.7,4.5L46.7,109Z" fill="#06baf2"/><polygon points="66.02 149.34 67.12 123.78 82.14 154.28 66.02 149.34" fill="#fff"/><path d="M67.53,125.75l13.65,27.71L66.53,149l1-23.22m-.83-4-1.2,27.9,17.6,5.4L66.7,121.8Z" fill="#06baf2"/><polygon points="69.85 115.28 87.18 104.1 93.33 129.36 69.85 115.28" fill="#fff"/><path d="M86.86,104.9l5.7,23.41-21.77-13L86.86,104.9m.64-1.6-18.6,12,25.2,15.1-6.6-27.1Z" fill="#06baf2"/><polygon points="91.73 104.58 104.65 110.36 97.33 127.33 91.73 104.58" fill="#fff"/><path d="M92.46,105.45,104,110.61l-6.53,15.16-5-20.32M91,103.7l6.2,25.2,8.1-18.8L91,103.7Z" fill="#06baf2"/><polygon points="93.55 100.12 114.99 86.4 106.54 105.94 93.55 100.12" fill="#fff"/><path d="M113.88,87.71l-7.6,17.56L94.6,100l19.28-12.33m2.22-2.61L92.5,100.2l14.3,6.4,9.3-21.5Z" fill="#06baf2"/><polygon points="119.08 88.16 124.05 118.41 101.29 129.37 119.08 88.16" fill="#fff"/><path d="M118.87,89.93l4.62,28.19-21.21,10.22,16.59-38.41m.43-3.53-19,44,24.3-11.7-5.3-32.3Z" fill="#06baf2"/><polygon points="123.2 85.78 149.46 106.2 128.28 116.46 123.2 85.78" fill="#fff"/><path d="M123.9,87l24.62,19.14-19.85,9.62L123.9,87m-1.4-2.36,5.4,32.6,22.5-10.9L122.5,84.6Z" fill="#06baf2"/><polygon points="124.27 80.44 143.37 68.21 150.52 100.76 124.27 80.44" fill="#fff"/><path d="M143,69l6.7,30.5-24.6-19L143,69m.67-1.62-20.3,13L151.3,102l-7.6-34.6Z" fill="#06baf2"/><polygon points="129.27 121.48 149.77 111.7 135.14 149.07 129.27 121.48" fill="#fff"/><path d="M148.85,112.69l-13.57,34.64-5.44-25.57,19-9.07m1.85-2-22,10.5,6.3,29.6,15.7-40.1Z" fill="#06baf2"/><polygon points="101.86 134.45 125.04 123.42 131.17 152.08 101.86 134.45" fill="#fff"/><path d="M124.69,124.15l5.75,26.91L102.91,134.5l21.78-10.35m.71-1.45-24.6,11.7,31.1,18.7-6.5-30.4Z" fill="#06baf2"/><polygon points="97.73 137.62 125.98 154.65 89.97 155.58 97.73 137.62" fill="#fff"/><path d="M98,138.35l26.29,15.84-33.51.87L98,138.35m-.46-1.45-8.3,19.2,38.5-1L97.5,136.9Z" fill="#06baf2"/><polygon points="70.71 121.31 93.87 135.3 86.27 152.81 70.71 121.31" fill="#fff"/><path d="M71.91,122.63,93.23,135.5l-7,16.12-14.33-29M69.5,120l16.8,34,8.2-18.9L69.5,120Z" fill="#06baf2"/><polygon points="65.87 154.27 82.67 159.47 64.57 183.51 65.87 154.27" fill="#fff"/><path d="M66.34,154.94l15.51,4.79L65.14,181.92l1.2-27m-.94-1.34L64,185.1l19.5-25.9-18.1-5.6Z" fill="#06baf2"/><polygon points="49.75 106.6 63.29 116.64 62.21 140.59 49.75 106.6" fill="#fff"/><path d="M50.79,108l12,8.89-1,21.19L50.79,108m-2.09-2.8,13.9,37.9,1.2-26.7L48.7,105.2Z" fill="#06baf2"/><polygon points="48.68 163.66 61.56 155.44 60.28 183.3 48.68 163.66" fill="#fff"/><path d="M61,156.38,59.85,181.6l-10.5-17.78L61,156.38m1.09-1.88-14.1,9L60.7,185l1.4-30.5Z" fill="#06baf2"/><polygon points="27.28 177.44 45.13 166 57.22 186.55 27.28 177.44" fill="#fff"/><path d="M45,166.7l11.18,19-27.68-8.43L45,166.7m.34-1.4L26.1,177.6l32.2,9.8-13-22.1Z" fill="#06baf2"/><path d="M23.6,181.14l26.09,8L24.36,191.3H24a.6.6,0,0,0-.37.12.77.77,0,0,0-.38.23L21.61,193Z" fill="#fff"/><path d="M24,181.79l23.07,7.06-22.71,2H24a1.09,1.09,0,0,0-.58.16,1.68,1.68,0,0,0-.48.28l-.61.51,1.67-10m-.8-1.29-2.3,13.7,2.7-2.2a.35.35,0,0,1,.2-.1c.1,0,.1-.1.2-.1h.4l27.9-2.4-29.1-8.9Z" fill="#06baf2"/><polygon points="16.32 182.06 19.38 181.27 18.17 188.69 16.32 182.06" fill="#fff"/><path d="M18.77,182,18,186.37l-1.1-4,1.83-.47M20,180.6l-4.3,1.1,2.6,9.3L20,180.6Z" fill="#06baf2"/><polygon points="10.3 193.93 13.4 186.53 15.71 194.96 10.3 193.93" fill="#fff"/><path d="M13.3,188.06,15,194.32l-4-.77,2.3-5.49m.2-3.06-3.9,9.3,6.8,1.3L13.5,185Z" fill="#06baf2"/><polygon points="8.51 198.27 14.34 199.42 2.67 212.4 8.51 198.27" fill="#fff"/><path d="M8.81,198.84l4.57.9L4.24,209.91l4.57-11.07M8.2,197.7,1.1,214.9l14.2-15.8-7.1-1.4Z" fill="#06baf2"/><polygon points="5.76 215.53 9.68 211.19 6.42 217.66 5.76 215.53" fill="#fff"/><path d="M7.56,214.28l-1,2.05-.21-.68,1.24-1.37m4.24-6.18-6.6,7.3L6.3,219l5.5-10.9Z" fill="#06baf2"/><polygon points="1.1 220.63 2.68 218.89 3.22 220.68 1.1 220.63" fill="#fff"/><path d="M2.46,219.88l.08.28H2.2l.26-.28m.44-2L0,221.1l3.9.1-1-3.3Z" fill="#06baf2"/></g></g><g id="ram-g-r"><g id="head-r"><polygon points="411.91 83.41 411.91 83.36 412.76 75.52 433.48 103.76 409.64 104.16 411.91 83.41" fill="#fff"/><path d="M413.48,78.18l18,24.61-20.77.35,2.14-19.56v-.22l.57-5.18m-1.43-5.33-1.14,10.41v.1l-2.38,21.81,26.9-.44L412.05,72.85Z" fill="#06baf2"/><polygon points="364.45 21.76 374.89 18.4 389.21 27.68 364.45 21.76" fill="#fff"/><path d="M374.75,19.49l9,5.86-15.63-3.73,6.6-2.13M375,17.3l-14.3,4.6,33.9,8.1L375,17.3Z" fill="#06baf2"/><polygon points="350.39 2.46 368.02 13.89 354.63 18.13 350.39 2.46" fill="#fff"/><path d="M352,4.72l13.67,8.85-10.38,3.29L352,4.72M348.74.2l5.2,19.2,16.4-5.2L348.74.2Z" fill="#06baf2"/><polygon points="334.49 13.38 344.07 2.09 348.3 17.52 334.49 13.38" fill="#fff"/><path d="M343.61,4.18l3.25,11.87-10.62-3.19,7.37-8.68M344.54,0l-11.8,13.9,17,5.1-5.2-19Z" fill="#06baf2"/><polygon points="331.5 19.19 346.95 23.72 328.69 44.37 331.5 19.19" fill="#fff"/><path d="M332.36,20.49l12.79,3.74L330,41.34l2.33-20.85m-1.72-2.59-3.3,29.5,21.4-24.2-18.1-5.3Z" fill="#06baf2"/><polygon points="419.99 49.5 445.31 65.77 438.47 96.96 419.99 49.5" fill="#fff"/><path d="M422,52l22.15,14.22-6,27.28L422,52m-4.1-5,20.8,53.4,7.7-35.1L417.94,47Z" fill="#06baf2"/><polygon points="413.98 66.93 415.47 54 428.32 86.81 413.98 66.93" fill="#fff"/><path d="M416,58.1l8.51,21.72L415,66.66l1-8.56m-1.06-8.2-2,17.3,19.2,26.6-17.2-43.9Z" fill="#06baf2"/><polygon points="384.47 57.02 406.35 48.45 400.41 57.77 384.47 57.02" fill="#fff"/><path d="M403.85,50.5l-4,6.25-10.68-.51,14.66-5.74m5-4.1-29.1,11.4,21.2,1,7.9-12.4Z" fill="#06baf2"/><polygon points="356.6 91.53 367.13 70.89 368.63 101.14 356.6 91.53" fill="#fff"/><path d="M366.31,74.69,367.52,99l-9.66-7.71,8.45-16.57m1.63-7.59-12.6,24.7,14.4,11.5-1.8-36.2Z" fill="#06baf2"/><polygon points="336.81 75.6 363.05 65.39 351.71 87.55 336.81 75.6" fill="#fff"/><path d="M361,67.27,351.38,86,338.79,75.91,361,67.27m4.18-3.77-30.3,11.8L352,89.1l13.1-25.6Z" fill="#06baf2"/><polygon points="303.23 61.14 322.43 57.74 325.83 69.57 303.23 61.14" fill="#fff"/><path d="M321.71,58.88l2.61,9.06L307,61.49l14.7-2.61m1.43-2.28-23.7,4.2,27.9,10.4-4.2-14.6Z" fill="#06baf2"/><polygon points="324.59 25.14 321.73 51.24 299.18 55.15 324.59 25.14" fill="#fff"/><path d="M323.24,28.28l-2.43,22.11-19.09,3.3,21.52-25.41m2.7-6.28-29.3,34.6,26-4.5,3.3-30.1Z" fill="#06baf2"/><polygon points="299.71 66.69 327.05 76.76 324.06 99.89 299.71 66.69" fill="#fff"/><path d="M302.48,68.77,326,77.43l-2.56,19.86L302.48,68.77m-5.54-4.17,27.8,37.9,3.4-26.4-31.2-11.5Z" fill="#06baf2"/><polygon points="332.9 80.58 363.09 104.61 340.04 104.7 329.68 104.79 332.9 80.58" fill="#fff"/><path d="M333.66,82.46l26.58,21.16-19.8.08H340l-9.2.08,2.84-21.32m-1.52-3.76-3.6,27.1,11.5-.1h.4l25.5-.1-33.8-26.9Z" fill="#06baf2"/><polygon points="332.39 111.17 336.65 111.12 335.85 115.9 332.39 111.17" fill="#fff"/><path d="M335.47,112.13l-.22,1.26-.91-1.24,1.13,0m2.37-2-7.4.1,6,8.2,1.4-8.3Z" fill="#06baf2"/><path d="M341,122.85l2-11.76,26.19-.18,1.23,33.59-4.17-.4h-.59a1.55,1.55,0,0,0-.56.1h-.36l-.17.18a1.32,1.32,0,0,0-.52.31l-.3.3-3.52,4Z" fill="#fff"/><path d="M368.21,111.91l1.15,31.48-3-.28h-.69a2.51,2.51,0,0,0-.71.1h-.62l-.33.33a2.34,2.34,0,0,0-.66.46l-.3.3,0,0,0,0-2.66,3L342.05,122.6l1.78-10.51,24.38-.18m1.93-2-28,.2-2.2,13,20.2,27.5,4.3-4.9.3-.3c.1-.1.3-.1.4-.2s.3-.1.5-.1h.5l5.3.5-1.3-35.7Z" fill="#06baf2"/><polygon points="372.69 62.75 396.56 63.82 374.48 98.14 372.69 62.75" fill="#fff"/><path d="M373.75,63.8l21,.94L375.32,95,373.75,63.8m-2.11-2.1,2,39.6,24.7-38.4-26.7-1.2Z" fill="#06baf2"/><polygon points="409.64 54.51 408.14 67.24 408.14 67.6 406.5 81.22 382.33 97.25 409.64 54.51" fill="#fff"/><path d="M408.13,58.72l-1,8.35v.51l-1.58,13.06L385.72,93.8l22.41-35.08m3-8.42-32.2,50.4,28.5-18.9,1.7-14.1v-.4l2-17Z" fill="#06baf2"/><polygon points="405.6 89.03 403.85 104.11 382.51 104.36 405.6 89.03" fill="#fff"/><path d="M404.36,91.05,403,103.12l-17.07.2,18.48-12.27m2.48-4-27.7,18.4,25.6-.3,2.1-18.1Z" fill="#06baf2"/><polygon points="388.64 110.61 406.46 110.3 430.26 109.94 416.17 120.87 388.64 110.61" fill="#fff"/><path d="M427.28,111,416,119.74l-22.05-8.22,12.53-.22,20.81-.31m6-2.09-26.8.4-23.1.4,33,12.3,16.9-13.1Z" fill="#06baf2"/></g><g id="leg-r"><polygon points="421.11 124.42 437.49 111.45 452.28 148.07 421.11 124.42" fill="#fff"/><path d="M437.06,113.06l12.93,32L422.74,124.4l14.32-11.34m.86-3.22-18.45,14.6,35.09,26.62-16.64-41.22Z" fill="#06baf2"/><polygon points="429.95 148.84 423.38 133.71 447.23 151.74 429.95 148.84" fill="#fff"/><path d="M425.81,136.81l17.56,13.27-12.72-2.14-4.84-11.13m-4.87-6.19,8.31,19.11,21.84,3.67-30.15-22.78Z" fill="#06baf2"/><polygon points="410.07 191.74 413.87 194.45 412.04 195.66 410.07 191.74" fill="#fff"/><polygon points="407.36 188.57 411.66 197.13 415.63 194.48 407.36 188.57 407.36 188.57" fill="#06baf2"/><polygon points="414.69 201.05 415.82 200.31 415.63 202.91 414.69 201.05" fill="#fff"/><polygon points="416.97 198.37 413.39 200.71 416.36 206.57 416.97 198.37 416.97 198.37" fill="#06baf2"/><polygon points="409.14 183.42 417.54 181.31 417.39 181.95 417.4 182.46 416.84 188.93 409.14 183.42" fill="#fff"/><path d="M416.38,182.63l-.38,4.46-4.52-3.23,4.9-1.23m2.49-2.68-12.07,3,10.89,7.78.71-8.31v-.4l.48-2.1Z" fill="#06baf2"/><polygon points="421.62 200.06 422.06 200.38 421.51 201.32 421.62 200.06" fill="#fff"/><polygon points="420.77 198.23 420.15 205.63 423.39 200.1 420.77 198.23 420.77 198.23" fill="#06baf2"/><polygon points="421.12 193.42 421.3 191.62 422.23 194.21 421.12 193.42" fill="#fff"/><polygon points="421.3 191.62 421.12 193.42 422.23 194.21 421.3 191.62 421.3 191.62" fill="#06baf2"/><polygon points="422.24 162.9 419.3 174.71 410.33 176.95 422.24 162.9" fill="#fff"/><path d="M420.24,166.81l-1.77,7.07-5.37,1.34,7.14-8.41m4-7.82-16.69,19.68,12.56-3.14L424.25,159Z" fill="#06baf2"/><polygon points="422.87 179.4 422.96 179 426.06 178.27 422.87 179.4" fill="#fff"/><polygon points="426.06 178.27 422.96 179 422.87 179.4 426.06 178.27 426.06 178.27" fill="#06baf2"/><polygon points="428.67 160.59 433.11 171.19 425.5 173.11 428.67 160.59" fill="#fff"/><path d="M428.9,163.73l2.84,6.78-4.86,1.22,2-8m-.47-6.29-4.32,17.05,10.38-2.61-6.06-14.44Z" fill="#06baf2"/><polygon points="433.66 157.66 451.82 166.46 438.76 169.76 433.66 157.66" fill="#fff"/><path d="M435.62,159.72l13.3,6.44-9.57,2.42-3.73-8.86m-3.91-4.11,6.47,15.33,16.55-4.18-23-11.15Z" fill="#06baf2"/><polygon points="448.17 158.03 456.38 159.4 456.88 162.27 448.17 158.03" fill="#fff"/><path d="M454.83,160.16l.69.11,0,.24-.73-.35m-13.32-4.26L458.2,164l-1-5.49-15.73-2.63Z" fill="#06baf2"/></g><g id="torso-r"><polygon points="536.18 152.22 547.54 148.67 561.31 168.41 536.18 152.22" fill="#fff"/><path d="M547.14,149.85l10.45,15-19.07-12.28,8.62-2.69m.8-2.35-14.1,4.4L565,172l-17.1-24.5Z" fill="#06baf2"/><polygon points="545.69 114.52 545.93 143.16 533.87 146.85 545.69 114.52" fill="#fff"/><path d="M544.73,120l.2,22.38-9.43,2.89L544.73,120m1.91-11-14.4,39.4,14.7-4.5-.3-34.9Z" fill="#06baf2"/><polygon points="525.81 125.75 526.81 148.97 512.16 153.47 525.81 125.75" fill="#fff"/><path d="M525,129.7l.79,18.54-11.69,3.59L525,129.7m1.66-7.9-16.4,33.3,17.6-5.4-1.2-27.9Z" fill="#06baf2"/><polygon points="506.48 104.9 522.54 115.27 500.77 128.31 506.48 104.9" fill="#fff"/><path d="M507.12,106.5l13.53,8.74-18.34,11,4.81-19.73m-1.28-3.2-6.6,27.1,25.2-15.1-18.6-12Z" fill="#06baf2"/><polygon points="489.35 110.61 500.88 105.45 495.88 125.77 489.35 110.61" fill="#fff"/><path d="M499.42,107.2l-3.8,15.44-5-11.52,8.76-3.92m2.92-3.5L488,110.1l8.1,18.8,6.2-25.2Z" fill="#06baf2"/><polygon points="479.45 87.7 498.74 100.04 487.05 105.27 479.45 87.7" fill="#fff"/><path d="M481.67,90.31l15,9.58L487.57,104l-5.9-13.64m-4.43-5.21,9.3,21.5,14.3-6.4-23.6-15.1Z" fill="#06baf2"/><polygon points="469.85 118.12 474.47 89.93 491.06 128.34 469.85 118.12" fill="#fff"/><path d="M474.91,93.46l14.17,32.81L471,117.55l4-24.09M474,86.4l-5.3,32.3L493,130.4l-19-44Z" fill="#06baf2"/><polygon points="444.82 106.1 469.44 86.96 464.67 115.72 444.82 106.1" fill="#fff"/><path d="M468,89.32l-4.13,24.91-17.19-8.33L468,89.32m2.81-4.72-27.9,21.7,22.5,10.9,5.4-32.6Z" fill="#06baf2"/><polygon points="450.31 69.02 468.2 80.48 443.61 99.52 450.31 69.02" fill="#fff"/><path d="M451,70.63l15.49,9.92L445.18,97,451,70.63m-1.34-3.23L442,102l27.9-21.6-20.3-13Z" fill="#06baf2"/><polygon points="444.49 112.69 463.5 121.76 458.06 147.33 444.49 112.69" fill="#fff"/><path d="M446.35,114.69l16,7.64-4.58,21.53-11.42-29.17m-3.71-4,15.7,40.1,6.3-29.6-22-10.5Z" fill="#06baf2"/><polygon points="468.65 124.15 490.43 134.5 462.9 151.06 468.65 124.15" fill="#fff"/><path d="M469.37,125.59l18.94,9L464.36,149l5-23.42m-1.43-2.89-6.5,30.4,31.1-18.7-24.6-11.7Z" fill="#06baf2"/><polygon points="469.09 154.19 495.38 138.35 502.6 155.06 469.09 154.19" fill="#fff"/><path d="M494.91,139.79,501.06,154l-28.52-.74,22.37-13.49m.93-2.89-30.2,18.2,38.5,1-8.3-19.2Z" fill="#06baf2"/><polygon points="500.1 135.5 521.43 122.63 507.1 151.62 500.1 135.5" fill="#fff"/><path d="M519,125.25l-11.85,24-5.79-13.34L519,125.25m4.83-5.25-25,15.1L507,154l16.8-34Z" fill="#06baf2"/><polygon points="511.49 159.74 527 154.94 528.2 181.92 511.49 159.74" fill="#fff"/><path d="M526.06,156.28l1,22.46-13.9-18.47,12.91-4m1.88-2.68-18.1,5.6,19.5,25.9-1.4-31.5Z" fill="#06baf2"/><polygon points="530.56 116.89 542.55 108 531.51 138.08 530.56 116.89" fill="#fff"/><path d="M540.46,110.79l-8.17,22.27-.71-15.69,8.88-6.58m4.18-5.59-15.1,11.2,1.2,26.7,13.9-37.9Z" fill="#06baf2"/><polygon points="532.33 156.38 543.99 163.82 533.48 181.6 532.33 156.38" fill="#fff"/><path d="M533.41,158.26l9.22,5.89-8.3,14.06-.92-20m-2.17-3.76,1.4,30.5,12.7-21.5-14.1-9Z" fill="#06baf2"/><polygon points="548.37 166.7 564.88 177.27 537.2 185.7 548.37 166.7" fill="#fff"/><path d="M548.71,168.1l13.8,8.85-23.15,7,9.35-15.89m-.67-2.8-13,22.1,32.2-9.8L548,165.3Z" fill="#06baf2"/><path d="M570.4,191.25a1.59,1.59,0,0,0-.48-.29,1.13,1.13,0,0,0-.58-.16h-.4l-22.67-2,23.07-7.06,1.67,10Z" fill="#fff"/><path d="M568.54,183.08l1.14,6.75-.34,0H569l-17.52-1.51,17-5.21m1.6-2.58L541,189.4l27.9,2.4h.4c.1,0,.1.1.2.1a.35.35,0,0,1,.2.1l2.7,2.2-2.3-13.7Z" fill="#06baf2"/><polygon points="574.57 181.95 576.4 182.41 575.29 186.37 574.57 181.95" fill="#fff"/><polygon points="573.34 180.6 575.04 191 577.64 181.7 573.34 180.6 573.34 180.6" fill="#06baf2"/><polygon points="580.04 188.06 582.34 193.55 578.33 194.32 580.04 188.06" fill="#fff"/><path d="M580.24,191.12l.7,1.68-1.23.23.53-1.91m-.4-6.12-2.9,10.6,6.8-1.3-3.9-9.3Z" fill="#06baf2"/><polygon points="579.96 199.74 584.53 198.84 589.1 209.91 579.96 199.74" fill="#fff"/><path d="M583.92,200l2,4.93-4.07-4.53,2-.4m1.22-2.28-7.1,1.4,14.2,15.8-7.1-17.2Z" fill="#06baf2"/><polygon points="585.77 214.28 587.02 215.65 586.81 216.33 585.77 214.28" fill="#fff"/><polygon points="581.54 208.1 587.04 219 588.14 215.4 581.54 208.1 581.54 208.1" fill="#06baf2"/><polygon points="590.88 219.88 591.13 220.16 590.8 220.16 590.88 219.88" fill="#fff"/><polygon points="590.44 217.9 589.44 221.2 593.34 221.1 590.44 217.9 590.44 217.9" fill="#06baf2"/></g></g></g></g></svg>